<?xml version="1.0" standalone="no"?>
<!DOCTYPE svg PUBLIC "-//W3C//DTD SVG 20010904//EN"
 "http://www.w3.org/TR/2001/REC-SVG-20010904/DTD/svg10.dtd">
<svg version="1.0" xmlns="http://www.w3.org/2000/svg"
 width="42.000000pt" height="50.000000pt" viewBox="0 0 42.000000 50.000000"
 preserveAspectRatio="xMidYMid meet">

<g transform="translate(0.000000,50.000000) scale(0.100000,-0.100000)"
fill="#000000" stroke="none">
<path d="M148 489 c-13 -7 -18 -23 -18 -59 0 -47 -2 -50 -26 -50 -42 0 -64
-18 -64 -50 0 -16 -9 -44 -20 -62 -11 -18 -20 -37 -20 -41 0 -5 24 -31 52 -57
52 -48 52 -49 29 -58 -21 -7 -24 -15 -24 -58 l0 -49 172 -3 171 -2 0 54 c0 39
-4 55 -15 60 -20 7 -19 32 4 70 24 39 36 137 21 165 -7 14 -21 21 -39 21 -15
0 -49 3 -75 6 l-46 7 0 46 c0 26 -5 52 -12 59 -15 15 -66 15 -90 1z m70 -79
c3 -76 18 -114 28 -73 9 32 34 37 61 11 22 -21 24 -21 37 -3 8 11 20 16 30 12
12 -5 16 -20 16 -70 0 -52 -5 -69 -25 -97 -14 -19 -24 -44 -23 -55 3 -19 -3
-20 -109 -23 -95 -2 -113 0 -113 12 0 8 -20 32 -45 53 -28 23 -45 45 -44 58 0
11 3 14 6 8 2 -7 11 -13 19 -13 11 0 14 15 14 64 0 48 4 65 15 70 25 9 45 -4
45 -30 0 -15 6 -24 15 -24 12 0 15 16 15 84 0 85 5 97 40 93 12 -2 16 -20 18
-77z m162 -350 l0 -40 -150 0 -150 0 0 40 0 40 150 0 150 0 0 -40z"/>
<path d="M123 58 c2 -7 12 -13 22 -13 10 0 20 6 23 13 2 7 -6 12 -23 12 -17 0
-25 -5 -22 -12z"/>
</g>
</svg>
